<svg version="1.1" id="Layer_1" xmlns="http://www.w3.org/2000/svg" xmlns:xlink="http://www.w3.org/1999/xlink" x="0px" y="0px"
	 width="100%" viewBox="0 0 912 912" enable-background="new 0 0 912 912" xml:space="preserve">
<path fill="#000000" opacity="1.000000" stroke="none" 
	d="
M233.895599,475.925476 
	C249.651459,458.866211 269.120117,450.147675 291.604370,447.669647 
	C327.643127,443.697723 360.227325,455.025146 391.943268,470.304108 
	C411.394104,479.674408 428.872498,492.169403 446.725372,504.130951 
	C491.069824,533.842041 537.921875,558.483887 589.304626,573.921936 
	C607.843018,579.491882 626.487976,584.116150 645.924683,584.833679 
	C684.974304,586.275208 713.053528,568.175720 733.052368,535.802917 
	C741.075256,522.815979 746.743408,508.807465 750.589905,494.050140 
	C750.796021,493.259460 750.828979,492.380859 751.719971,491.966553 
	C752.886536,491.825134 753.148621,492.660614 753.181274,493.491425 
	C754.070557,516.157227 752.649658,538.433167 742.656189,559.389526 
	C731.734741,582.292053 714.107056,598.040710 690.978943,607.751831 
	C664.423767,618.901917 636.908203,620.328857 608.669800,615.824097 
	C570.489258,609.733398 534.858643,596.034668 499.712555,580.672302 
	C463.241272,564.730713 428.005035,546.138672 391.483002,530.309998 
	C367.934418,520.104065 344.091553,510.758057 318.743713,505.918701 
	C311.362579,504.509460 303.895660,503.886322 296.400787,504.401428 
	C283.948578,505.257324 271.515717,517.182495 270.415100,529.090881 
	C268.869659,545.812134 275.503632,555.680542 290.658813,560.009766 
	C295.505249,561.394226 298.818939,559.792053 302.433197,556.908447 
	C313.295776,548.241638 329.411835,549.092102 339.536652,558.574768 
	C349.014801,567.451782 350.083649,582.391113 341.843384,594.715820 
	C333.724640,606.858704 321.192200,611.922913 307.594482,614.004333 
	C276.792450,618.719116 250.427551,609.696777 230.145996,585.783691 
	C213.781738,566.489319 208.574127,543.765930 213.129944,518.952454 
	C216.077499,502.898407 223.246353,488.733215 233.895599,475.925476 
z"/>
<path fill="#000000" opacity="1.000000" stroke="none" 
	d="
M332.502747,390.041199 
	C327.548828,388.804016 331.027222,387.605072 332.316010,386.907501 
	C338.610382,383.500427 345.045959,380.390839 351.707855,377.725311 
	C371.647583,369.747101 392.326935,366.182922 413.729767,367.738220 
	C434.588135,369.253998 452.925110,376.827911 468.850372,390.761017 
	C486.776337,406.444519 503.274780,423.668701 521.604431,438.898438 
	C543.151062,456.801086 565.435730,473.638733 590.144043,487.029633 
	C610.595154,498.113373 631.836975,507.163635 655.069824,510.331635 
	C683.061340,514.148499 720.797424,499.849335 733.135986,475.175934 
	C735.357056,470.734344 737.236328,466.121796 739.735168,460.560577 
	C740.908752,466.602936 740.246826,471.674896 739.384338,476.748779 
	C734.648865,504.606903 719.933655,524.185974 692.240967,532.431702 
	C678.405701,536.551270 664.161804,537.093323 649.747559,535.672729 
	C592.260925,530.006897 543.482300,504.418213 498.236298,470.338104 
	C480.248718,456.789551 464.953613,440.092224 446.551178,427.070435 
	C423.649292,410.864777 399.171783,398.013214 371.529663,392.046906 
	C358.793976,389.298004 345.878876,388.414368 332.502747,390.041199 
z"/>
<path fill="#000000" opacity="1.000000" stroke="none" 
	d="
M680.141968,564.374756 
	C659.951233,569.583191 640.103210,568.294495 620.268005,564.928589 
	C580.154968,558.121704 543.704102,541.658936 508.247101,522.486755 
	C472.881287,503.363892 439.364624,481.262848 406.132538,458.776123 
	C379.061432,440.458191 349.347290,431.858154 317.062775,430.204956 
	C304.614075,429.567474 292.190826,429.272675 279.501343,429.569946 
	C279.649261,426.889587 281.847290,426.322723 283.374939,425.415222 
	C311.014679,408.996368 340.626434,406.006927 371.562378,412.841705 
	C398.484741,418.789703 420.848419,433.190247 441.544312,450.763367 
	C465.693481,471.268707 490.846130,490.392242 518.383789,506.262390 
	C551.066650,525.097778 585.456177,539.555481 622.447388,547.302856 
	C634.791748,549.888184 647.309814,552.059265 659.939331,552.547852 
	C680.223938,553.332520 698.725708,547.623352 715.288330,535.785706 
	C716.882751,534.646057 718.265686,533.107361 720.675171,532.637695 
	C721.316223,536.131836 719.288208,538.619690 717.709106,541.108582 
	C710.641724,552.247742 699.951233,558.340759 687.745056,562.227722 
	C685.367859,562.984619 682.951294,563.617920 680.141968,564.374756 
z"/>
<path fill="#000000" opacity="1.000000" stroke="none" 
	d="
M513.650879,279.270813 
	C511.685577,271.788361 509.785248,264.713470 507.876801,257.640808 
	C507.457977,256.088654 507.455231,253.909454 505.161285,254.174210 
	C503.264740,254.393066 503.272552,256.326263 503.357697,257.800751 
	C503.873810,266.739197 501.684235,275.743317 504.067169,284.642090 
	C504.674103,286.908417 503.563446,288.248352 501.222504,288.175507 
	C494.238190,287.958191 487.249420,287.754913 480.278778,287.296844 
	C477.790649,287.133331 477.780151,285.080170 479.052948,283.668945 
	C481.072632,281.429565 480.051422,279.859650 478.614014,278.024109 
	C474.521912,272.798492 470.502014,267.516327 465.899445,262.393921 
	C465.364960,270.499878 463.632141,278.540649 467.409485,286.443878 
	C464.459595,287.956421 461.730286,287.363556 458.781128,287.150360 
	C457.881714,283.354340 461.375580,280.740479 460.751404,277.072449 
	C459.313568,268.622650 461.480896,259.824554 458.300842,251.462067 
	C457.408173,249.114639 459.623840,248.747421 461.322479,248.754333 
	C464.973877,248.769196 469.063324,247.973267 472.151154,249.351532 
	C475.184540,250.705490 477.200317,254.339355 479.626129,256.933655 
	C480.859375,256.386719 480.555511,255.524048 480.412506,254.745834 
	C480.075806,252.913971 476.837799,251.369019 478.858643,249.584747 
	C481.045013,247.654327 484.097839,248.391602 487.017792,249.592957 
	C483.821991,259.117798 485.735260,268.757233 485.418213,278.289398 
	C485.358124,280.096436 484.634583,282.981323 487.556946,282.970947 
	C489.868561,282.962708 489.622314,280.379608 489.710266,278.572540 
	C490.009735,272.418854 490.315094,266.265289 490.578094,260.109985 
	C490.677307,257.788177 490.723297,255.534805 489.432465,253.345032 
	C487.640289,250.304703 488.688293,248.545044 492.291260,248.705017 
	C500.772217,249.081619 509.250488,249.520462 517.728760,249.955551 
	C521.168213,250.132050 522.329163,251.190781 521.785156,255.284439 
	C520.944153,261.612854 524.539917,267.387024 526.356873,273.634735 
	C529.714600,267.712250 533.631042,262.032196 533.320801,254.923828 
	C533.202515,252.212723 533.734863,251.079086 536.406067,251.336884 
	C546.337463,252.295380 556.268799,253.257950 566.191711,254.299545 
	C567.959351,254.485107 569.890137,254.607498 570.610901,256.866089 
	C571.155701,258.573273 572.577148,260.387238 570.959900,261.951324 
	C569.077087,263.772339 567.657837,261.850800 566.305908,260.717529 
	C564.852783,259.499390 563.173096,258.760895 561.348938,258.513397 
	C559.747009,258.296051 557.728027,257.790405 556.813232,259.572815 
	C555.847534,261.454529 554.967285,263.741394 556.008850,265.776520 
	C556.919189,267.555206 559.023010,267.644531 560.901062,267.576935 
	C561.558899,267.553284 562.230042,267.443207 562.863037,267.260986 
	C567.935486,265.800995 569.199524,266.971680 568.212463,272.216919 
	C567.698669,274.947540 566.689941,276.084259 563.817200,274.306458 
	C557.079163,270.136749 554.871277,271.306519 554.263306,279.086243 
	C553.582092,287.802734 553.589661,287.597687 562.481750,287.926422 
	C566.381897,288.070587 569.173218,285.008362 572.979431,285.183929 
	C573.963379,285.229309 574.444031,283.860657 574.538147,282.864349 
	C575.294250,274.858063 578.918152,267.132904 576.764893,258.827484 
	C576.110413,256.302948 577.778870,255.461899 579.960632,255.831985 
	C586.186035,256.888031 592.405640,257.992981 598.595947,259.235870 
	C602.870361,260.094086 605.880859,262.316437 606.313171,267.118744 
	C606.753784,272.013245 605.796509,276.096039 600.768311,278.212555 
	C600.187256,278.457184 599.647888,278.800995 599.034912,279.127747 
	C600.513855,284.382599 601.939819,289.449127 603.806580,296.081787 
	C604.359680,292.913666 603.831970,290.586792 606.227417,290.135651 
	C608.243958,289.755859 609.099548,291.521179 610.279541,292.604889 
	C612.245728,294.410675 614.149048,296.253754 616.763000,297.166718 
	C618.853638,297.896851 620.769653,297.916962 622.122070,295.963074 
	C623.399841,294.116974 622.526917,292.447083 621.206299,291.017273 
	C619.062073,288.695740 616.722473,286.542480 614.704712,284.118866 
	C611.184326,279.890350 609.786682,275.084869 611.602783,269.671814 
	C613.306396,264.594086 616.992371,262.220245 622.344055,262.743317 
	C625.820679,263.083099 628.972412,264.786713 632.538025,265.014130 
	C634.611084,265.146362 636.580200,270.787781 635.463562,272.650269 
	C634.207214,274.745880 632.740540,273.987335 631.361694,272.725159 
	C629.642761,271.151672 628.048462,269.393463 625.807312,268.547821 
	C624.375671,268.007629 622.732910,267.623383 621.682190,269.084412 
	C620.638611,270.535461 621.389954,272.028778 622.482910,273.141205 
	C624.932068,275.633942 627.478943,278.031433 630.005310,280.447540 
	C632.491638,282.825287 634.039001,285.809967 634.941223,289.019562 
	C637.545227,298.283630 629.227661,306.640137 619.539185,303.430603 
	C609.975342,300.262299 599.458496,301.188995 590.382507,295.670044 
	C588.070679,294.264252 583.596252,296.193024 580.004395,295.424316 
	C567.913391,292.836731 555.513672,292.601044 543.302673,290.886139 
	C539.599243,290.365997 537.585754,290.227661 539.561523,284.814880 
	C542.808167,275.920685 542.636597,266.188293 542.836853,256.532654 
	C538.824036,256.748352 538.581665,259.302521 537.810425,261.136017 
	C534.582092,268.810699 531.279236,276.468964 528.481384,284.303833 
	C526.937622,288.626923 524.313416,289.538574 520.135681,289.402649 
	C515.942017,289.266205 515.393982,286.511688 514.654724,283.562836 
	C514.330750,282.270782 514.026245,280.973846 513.650879,279.270813 
M591.482361,264.313568 
	C589.808167,267.043945 589.815369,270.017242 589.816284,274.095154 
	C593.395874,270.693359 594.188293,267.839569 591.482361,264.313568 
z"/>
<path fill="#000000" opacity="1.000000" stroke="none" 
	d="
M722.740295,307.817444 
	C724.233704,304.294495 726.203979,301.273529 725.025024,297.793488 
	C726.066040,296.744507 727.082825,296.587463 728.038208,296.977570 
	C734.665466,299.683594 741.196045,302.624603 747.188293,306.566833 
	C750.961548,309.049225 751.940552,312.840485 751.033630,317.119263 
	C750.139648,321.336609 747.476929,323.751862 743.197510,324.389679 
	C742.412659,324.506653 741.645996,324.746094 740.752808,324.956879 
	C741.133911,329.620880 741.860352,334.067657 740.561218,338.497986 
	C740.101074,340.067413 740.710693,341.533234 742.260498,342.271484 
	C744.036072,343.117310 745.222473,342.037109 745.847595,340.579773 
	C749.548706,331.951355 756.073914,324.584991 757.358704,314.879944 
	C757.588867,313.141174 758.742981,312.412811 760.159546,313.127594 
	C764.017029,315.074158 767.777832,317.219574 771.516357,319.390594 
	C772.995667,320.249634 772.905029,321.470581 771.811523,322.719696 
	C764.183228,331.433380 759.227234,341.512329 756.500183,352.731232 
	C756.430969,353.016022 756.092590,353.235382 755.840515,353.531281 
	C754.057678,354.089813 752.665894,353.008636 751.249512,352.226898 
	C746.883606,349.817474 742.528809,347.444885 737.916138,345.469635 
	C729.895081,342.034821 727.758301,337.911377 728.482361,328.828796 
	C727.130432,330.362457 726.669617,332.127258 726.860840,333.954346 
	C727.329895,338.435791 725.138489,338.320099 722.077087,336.877991 
	C714.548828,333.331665 706.931152,330.008575 699.057434,327.282501 
	C695.816650,326.160492 693.889221,324.650391 697.510437,321.425415 
	C699.303955,319.828186 699.368347,317.259644 697.926575,315.489319 
	C696.086853,313.230438 693.215820,312.082123 690.332947,312.493317 
	C687.963440,312.831329 686.847412,315.031860 686.907410,317.358887 
	C686.957520,319.302734 687.324402,321.460083 684.624390,321.276123 
	C682.032288,321.099457 679.318054,320.435303 677.741760,317.947205 
	C677.256531,317.181305 677.695557,316.320587 678.414124,315.760681 
	C686.947998,309.111694 692.380737,299.766571 699.204102,291.641327 
	C701.676514,288.697235 703.720398,287.476776 707.588135,288.809296 
	C711.425781,290.131470 711.406921,292.721893 711.369324,295.855774 
	C711.269348,304.179962 711.291748,312.506378 711.354187,320.831238 
	C711.368347,322.716888 710.765991,324.899963 713.737732,326.710724 
	C717.567261,320.913940 719.561523,314.258942 722.740295,307.817444 
M735.219666,316.912354 
	C738.077148,314.608734 739.265076,311.853699 737.812866,308.375702 
	C736.146973,311.102081 733.169739,313.381836 735.219666,316.912354 
M698.890076,305.437958 
	C698.806458,304.138062 699.448364,302.647705 697.931580,301.443817 
	C696.972961,302.619812 696.146423,303.607758 695.349060,304.618866 
	C694.456604,305.750549 693.940613,306.960693 695.498840,307.909241 
	C697.500488,309.127686 698.510315,308.218964 698.890076,305.437958 
z"/>
<path fill="#000000" opacity="1.000000" stroke="none" 
	d="
M180.115295,348.960846 
	C176.262741,348.028503 173.271027,345.566040 168.599106,345.476288 
	C172.181671,352.069794 174.579514,358.683899 180.041306,363.154541 
	C182.711609,365.340271 182.873672,366.848633 180.181473,368.367920 
	C174.501450,371.573395 169.794739,375.999512 164.757996,380.015930 
	C161.962936,382.244812 160.119385,382.244354 160.304489,378.038391 
	C160.380524,376.310425 159.358047,375.247986 158.508636,374.061462 
	C154.245346,368.106049 149.941010,362.180023 145.646561,356.246979 
	C145.256729,355.708374 144.894669,355.130035 144.418304,354.676758 
	C139.945206,350.420135 139.939545,350.427734 144.850677,346.597229 
	C145.375748,346.187714 145.847778,345.696320 146.411224,345.352356 
	C148.514465,344.068298 149.929138,341.116638 152.517487,341.373108 
	C155.521332,341.670807 154.105392,345.252686 155.507645,347.092499 
	C160.348434,353.443726 164.889481,360.022797 169.592545,366.480255 
	C170.456741,367.666809 171.490952,369.186676 173.235153,368.183624 
	C174.934402,367.206360 174.436569,365.592072 173.602951,364.245911 
	C168.648972,356.246246 165.049530,347.336884 157.992264,340.746063 
	C155.862762,338.757324 157.329483,337.745117 158.800354,336.408234 
	C164.398209,331.320251 170.385208,328.773773 177.512833,333.892822 
	C178.502823,329.773193 175.182419,329.773285 173.637878,328.107635 
	C174.472916,324.722992 177.356720,323.972015 180.385895,322.659332 
	C182.098450,331.615753 188.146942,338.008850 192.231461,345.460327 
	C193.498779,347.772339 194.831940,350.149902 197.126465,351.672668 
	C198.369797,352.497833 200.241898,353.160492 199.217285,354.975891 
	C197.969025,357.187500 195.728485,358.756073 193.228973,358.939606 
	C191.146698,359.092560 191.490158,356.992859 191.488617,355.518860 
	C191.486450,353.473053 190.074310,352.683136 188.424164,352.077942 
	C185.768661,351.104065 183.126419,350.094086 180.115295,348.960846 
z"/>
<path fill="#000000" opacity="1.000000" stroke="none" 
	d="
M395.675537,256.986389 
	C403.397888,262.217468 406.633057,270.001892 404.804077,278.292786 
	C402.881439,287.008209 396.649261,292.684052 387.801270,294.316895 
	C381.062775,295.560425 374.549774,295.915924 368.619781,291.777283 
	C361.885010,287.076935 359.349884,278.794220 361.660828,269.476959 
	C363.671234,261.371460 370.349579,255.566452 379.230835,254.809143 
	C384.667206,254.345612 390.238800,253.968811 395.675537,256.986389 
M387.701935,289.322388 
	C393.337280,288.049438 396.200928,284.706238 395.091797,280.253662 
	C393.127289,272.367401 388.639526,266.165924 381.850555,261.692139 
	C379.110870,259.886780 376.211945,259.639893 373.535278,261.792053 
	C370.868591,263.936157 369.422058,266.875824 370.662079,270.161224 
	C373.780914,278.424622 378.425690,285.525513 387.701935,289.322388 
z"/>
<path fill="#000000" opacity="1.000000" stroke="none" 
	d="
M789.750427,373.063690 
	C778.674683,372.796112 770.972351,367.184143 765.870361,358.514984 
	C761.608582,351.273499 762.944153,343.630768 768.223877,337.098022 
	C773.515015,330.551178 780.396423,328.160034 788.687378,330.478851 
	C804.272766,334.837677 812.167114,351.701843 804.328552,363.912109 
	C800.996399,369.102692 796.370239,372.287323 789.750427,373.063690 
M776.463074,350.847504 
	C776.252563,355.220490 776.862793,359.507050 778.856506,363.386017 
	C781.675964,368.871643 787.414673,369.344360 790.711670,364.179749 
	C795.692261,356.377869 795.979980,347.939148 792.575867,339.420197 
	C791.441101,336.580231 789.024536,334.930023 785.963623,334.890717 
	C783.075928,334.853668 781.109314,336.613922 779.629395,339.051361 
	C777.572937,342.438568 777.462891,346.317200 776.463074,350.847504 
z"/>
<path fill="#000000" opacity="1.000000" stroke="none" 
	d="
M613.732910,335.790344 
	C613.785461,338.383453 613.691223,340.691254 611.944214,342.833038 
	C609.371948,341.853699 607.422058,336.867645 604.257141,340.557007 
	C602.645264,342.436035 601.079285,345.926331 603.314758,348.366943 
	C606.563416,351.913727 610.167908,350.815430 613.210327,346.920563 
	C614.170837,353.453674 613.108887,354.498566 607.671265,353.392548 
	C599.709900,351.773163 591.748596,350.150299 583.767273,348.634583 
	C581.711914,348.244293 579.842773,347.856323 579.356384,345.473236 
	C571.335571,348.346893 565.035400,346.587799 562.505676,340.660767 
	C560.939941,336.992401 561.797668,333.166382 562.304626,329.359375 
	C562.923584,324.711914 565.363953,320.023682 562.070679,315.181549 
	C566.536438,313.946594 570.311707,315.817596 574.995239,316.456848 
	C569.821899,321.930206 570.544800,328.493683 569.363037,334.492218 
	C568.566040,338.537903 570.667603,341.616638 574.633301,342.208954 
	C578.274719,342.752808 580.453186,340.014526 581.263611,336.670044 
	C582.239563,332.642151 582.899719,328.533905 583.593628,324.442993 
	C583.967896,322.236176 583.518372,320.164032 580.302002,318.113953 
	C586.176636,317.659088 590.173767,318.548706 594.081238,320.118408 
	C588.853149,327.689117 589.777222,336.575836 588.351562,344.897217 
	C588.071228,346.533417 589.438843,347.611938 591.188965,347.735474 
	C593.492676,347.898071 594.561157,346.359619 594.984497,344.488953 
	C596.121155,339.465851 596.963867,334.375092 598.146606,329.363953 
	C598.831726,326.461060 599.843689,323.664825 596.545593,320.650757 
	C603.952454,320.601685 609.787720,322.742126 615.638489,324.263062 
	C619.374695,325.234283 617.041382,328.548126 616.920776,330.811737 
	C615.820374,331.147705 615.193176,330.886200 614.955444,330.206024 
	C613.882019,327.134247 611.562988,325.269928 608.540161,325.846222 
	C605.711426,326.385498 606.341248,329.611298 605.898987,331.765381 
	C605.061157,335.846252 606.683533,337.303131 610.725891,336.339966 
	C611.672485,336.114441 612.591553,335.773834 613.732910,335.790344 
z"/>
<path fill="#000000" opacity="1.000000" stroke="none" 
	d="
M734.071777,375.771362 
	C733.137329,384.900757 730.108032,393.394775 731.687805,402.760162 
	C727.301086,402.051575 724.291565,399.320068 720.608154,396.987946 
	C723.752502,394.454163 725.267029,391.242004 724.049133,387.814545 
	C723.238403,385.533142 720.492676,383.626984 718.025513,384.261261 
	C714.638855,385.131897 712.496704,387.833832 712.972168,392.865875 
	C706.776245,388.376282 699.875488,387.461487 695.148132,382.525879 
	C693.918152,381.241669 692.499817,381.406006 691.029175,381.274017 
	C682.473755,380.506134 678.164246,373.860535 681.030823,365.722046 
	C682.301392,362.114716 683.809265,358.589661 685.254944,355.045837 
	C686.259155,352.584167 687.365967,350.157135 685.438843,346.902130 
	C690.464966,347.712189 694.142090,349.511414 697.609619,351.985443 
	C691.623779,357.024841 689.979431,364.110535 687.558044,370.652191 
	C686.615662,373.198059 688.774536,375.423370 691.283447,376.428223 
	C693.831421,377.448730 696.515015,377.129730 697.898987,374.593658 
	C701.064575,368.792816 704.613342,363.102570 705.526489,356.095703 
	C709.629272,355.640656 712.376892,358.678467 715.830017,359.896973 
	C709.097412,366.527466 707.051941,375.160583 703.771118,383.134918 
	C703.246887,384.409149 704.321289,385.300415 705.334595,385.956787 
	C707.140869,387.126801 708.952393,386.719543 710.439331,385.499176 
	C714.038940,382.544769 717.524841,379.450806 721.029907,376.382568 
	C722.909058,374.737549 724.638428,372.906799 726.610046,371.386353 
	C728.360657,370.036285 729.985840,367.612610 732.657104,369.024841 
	C735.321899,370.433746 734.164917,373.099731 734.071777,375.771362 
M724.904602,381.956451 
	C725.742798,380.530121 726.126221,379.074646 725.278992,377.468842 
	C720.885681,380.635162 720.885681,380.635162 724.904602,381.956451 
z"/>
<path fill="#000000" opacity="1.000000" stroke="none" 
	d="
M458.520264,322.784851 
	C459.563995,319.997162 460.554962,317.525818 461.438477,315.016602 
	C464.217041,307.125244 464.551239,306.913971 473.128845,308.258606 
	C469.698059,316.514404 472.902405,324.692017 473.415222,332.905518 
	C473.561218,335.243530 475.269562,336.535370 477.500977,336.430725 
	C479.697144,336.327789 479.826660,334.327057 479.911407,332.664581 
	C480.199280,327.016479 480.369659,321.362427 480.658752,315.714417 
	C480.781097,313.323761 480.042999,311.249451 477.845184,309.213013 
	C482.455078,308.231232 486.169403,308.648132 489.793518,308.902985 
	C487.378204,318.775391 487.053345,328.380432 489.431305,338.329529 
	C481.274109,338.329529 472.731079,338.329529 463.388580,338.329529 
	C467.815765,331.784973 463.936310,325.640137 464.168488,319.401611 
	C460.255768,325.109375 459.328217,332.276337 454.857971,339.191620 
	C451.561218,332.431030 448.767639,326.702271 445.922852,320.868500 
	C443.496246,327.099976 443.688202,332.290588 446.587585,337.983032 
	C444.053864,339.722443 441.439392,339.332550 438.202576,338.534851 
	C443.300201,331.524811 440.897217,323.479462 442.551727,316.117706 
	C443.273865,312.904663 439.704987,311.983582 438.530426,309.722382 
	C446.367310,306.623322 448.545410,307.451477 452.107880,314.828827 
	C453.480621,317.671631 454.751892,320.564575 456.170990,323.383514 
	C457.076019,325.181244 457.836212,324.457947 458.520264,322.784851 
z"/>
<path fill="#000000" opacity="1.000000" stroke="none" 
	d="
M306.957153,284.245422 
	C307.925079,288.372467 308.611572,292.148193 309.681549,295.811890 
	C310.972656,300.232605 314.942688,302.553650 318.843323,301.503326 
	C322.503540,300.517731 324.301727,296.882263 322.984283,292.244476 
	C320.959869,285.117859 320.998352,277.332581 316.269043,271.040405 
	C315.546356,270.078888 315.455872,268.695831 316.700073,267.954163 
	C318.580750,266.833099 320.679993,266.161835 322.894897,266.438568 
	C324.042419,266.581909 324.647644,267.687927 324.333679,268.694672 
	C322.292908,275.238251 325.966034,281.004120 326.752838,287.153534 
	C327.004608,289.121399 327.773224,291.018494 328.101807,292.982025 
	C329.146729,299.227173 326.960907,303.587402 321.413055,306.661621 
	C317.376160,308.898529 312.928223,309.695099 308.447052,309.876770 
	C302.928101,310.100494 299.306488,307.271942 297.794342,301.911133 
	C296.123566,295.987915 294.655640,290.007507 293.102448,284.051178 
	C292.850647,283.085480 292.737488,282.063477 292.351898,281.155975 
	C289.677124,274.860291 289.659576,274.868378 296.619904,272.964722 
	C297.742859,272.657593 298.867004,272.354187 299.985229,272.030457 
	C305.790222,270.349976 305.711395,270.428345 305.516327,276.530182 
	C305.438904,278.951630 306.372406,281.405426 306.957153,284.245422 
z"/>
<path fill="#000000" opacity="1.000000" stroke="none" 
	d="
M427.859497,250.641449 
	C429.295105,250.540787 430.296173,250.493622 431.283020,250.349319 
	C437.927673,249.377838 437.318695,249.303406 436.569946,256.019196 
	C435.744995,263.418610 435.643585,270.994324 437.831116,278.326324 
	C438.888916,281.871796 441.563782,283.614380 444.963318,283.360168 
	C448.272736,283.112701 450.533997,280.780151 450.563782,277.347717 
	C450.635559,269.080383 451.347137,260.718079 448.239716,252.742523 
	C447.789215,251.586243 447.427307,250.366989 448.814240,249.731506 
	C450.824371,248.810516 453.008575,248.542267 455.130798,249.290192 
	C456.224915,249.675766 456.607513,251.053894 456.059753,251.806778 
	C453.096802,255.879471 455.314758,260.209778 455.240662,264.404663 
	C455.161224,268.900848 455.463562,273.407562 455.285431,277.897217 
	C455.078583,283.110809 452.327484,286.583466 447.301941,288.188873 
	C442.587738,289.694824 437.739258,289.709351 432.949921,289.030090 
	C428.349854,288.377686 425.781006,285.367462 424.631927,280.841370 
	C422.883759,273.955597 424.406281,266.852081 422.985596,259.963654 
	C422.784821,258.990326 422.901276,257.944336 422.651154,256.989563 
	C421.013336,250.737823 420.993561,250.742996 427.859497,250.641449 
z"/>
<path fill="#000000" opacity="1.000000" stroke="none" 
	d="
M568.672363,693.622070 
	C567.425659,686.602844 567.627869,679.631531 563.563599,673.138550 
	C569.171082,671.495300 574.600586,670.225830 580.233032,670.774170 
	C585.525696,671.289429 587.146179,675.604370 584.344727,681.309692 
	C586.230774,683.195251 589.109802,684.294128 589.433167,687.592590 
	C589.822815,691.567566 588.643311,695.020020 584.697693,695.837708 
	C575.601746,697.722961 566.374817,698.977478 557.194763,700.448853 
	C556.753052,700.519714 556.251282,700.216187 555.537720,700.021606 
	C555.412659,696.777283 555.333801,693.232544 551.857239,691.629822 
	C550.139893,690.838074 548.119507,691.610168 546.971191,693.235962 
	C545.223877,695.709900 544.659546,698.354248 547.318604,700.828491 
	C545.065674,702.944885 542.771667,702.128906 539.810730,702.374817 
	C544.001770,694.140564 544.967468,685.746887 546.849060,677.588684 
	C547.192627,676.098938 547.730408,674.634521 549.477722,674.287537 
	C551.586182,673.868713 552.374695,675.434631 553.183594,676.928772 
	C556.428223,682.922180 559.658630,688.923584 562.949402,694.891602 
	C563.673340,696.204590 564.598083,697.602539 566.367676,697.343567 
	C568.150391,697.082764 568.718140,695.695374 568.672363,693.622070 
M575.369385,691.129944 
	C575.774719,693.315613 576.633301,695.118530 579.280518,694.057739 
	C581.646057,693.109802 583.021667,691.351074 582.106506,688.591980 
	C581.270386,686.071045 579.540466,684.700500 576.853760,685.254517 
	C573.392456,685.968384 575.145081,688.480164 575.369385,691.129944 
M578.131348,675.584717 
	C576.846741,674.258789 575.592896,672.843689 573.146057,674.090393 
	C573.216187,676.702087 572.878723,679.440674 574.249084,682.175171 
	C577.994690,681.589722 579.259338,679.613342 578.131348,675.584717 
z"/>
<path fill="#000000" opacity="1.000000" stroke="none" 
	d="
M206.557007,316.020599 
	C203.187149,315.158569 200.240036,315.370972 197.479401,316.816010 
	C196.183670,317.494293 194.663818,318.425659 194.931503,320.165283 
	C195.192993,321.864838 196.771698,322.499969 198.305023,322.621796 
	C201.789398,322.898712 205.298340,322.886688 208.777222,323.208801 
	C219.070786,324.161804 224.632584,332.061096 221.255310,340.784424 
	C219.987808,344.058319 217.632004,346.352051 214.609131,347.939606 
	C211.683105,349.476288 208.490921,350.402466 205.759171,352.448456 
	C203.784256,353.927612 196.997925,351.283783 196.268799,348.950653 
	C195.442108,346.305298 197.231033,345.701233 199.307190,345.832397 
	C202.142654,346.011536 204.997223,346.334137 207.729965,345.421051 
	C210.139938,344.615784 212.691483,343.444550 212.439972,340.387054 
	C212.185165,337.289581 209.551132,336.518707 206.942245,336.403198 
	C203.774780,336.262909 200.631760,336.119446 197.538986,335.341370 
	C191.984482,333.944122 188.114594,329.581268 187.682114,324.155518 
	C187.207428,318.200348 189.324142,315.099548 195.731064,312.639587 
	C197.627823,311.911316 199.256470,310.838654 200.907272,309.697266 
	C203.567001,307.858215 205.252563,310.095093 206.932541,311.552460 
	C208.460281,312.877777 209.294022,314.507629 206.557007,316.020599 
z"/>
<path fill="#000000" opacity="1.000000" stroke="none" 
	d="
M294.058594,343.863495 
	C293.412292,340.671478 292.428741,338.100800 289.495911,336.411194 
	C293.259766,333.702209 297.302460,333.144684 301.357300,331.919220 
	C300.118927,341.405365 304.375458,349.114105 306.760773,357.221283 
	C307.135193,358.493866 308.180542,359.657135 309.793030,359.132141 
	C311.244141,358.659729 312.936096,357.627960 312.671478,356.079742 
	C311.214569,347.556793 309.964661,338.917267 304.744873,330.850128 
	C309.760681,329.548676 315.203186,327.720306 320.795135,326.818817 
	C325.175201,326.112640 328.471405,328.276764 329.684570,332.950226 
	C330.767029,337.120209 328.958099,341.231567 324.902008,343.334991 
	C322.400635,344.632111 318.017853,344.088776 319.461670,349.150879 
	C320.281769,352.026337 320.804962,355.015717 324.174561,356.935364 
	C315.571564,359.468353 306.968567,362.001373 297.738037,364.719116 
	C300.125885,356.816772 295.871704,350.786865 294.058594,343.863495 
M317.156799,339.864441 
	C317.628174,342.250671 318.971405,342.532532 320.579803,341.009430 
	C323.084473,338.637573 323.272095,335.863647 321.266541,333.061920 
	C320.126831,331.469757 318.484650,330.553009 316.580811,331.460632 
	C314.724335,332.345703 315.722137,334.006012 316.012848,335.375702 
	C316.284668,336.656464 316.657104,337.915863 317.156799,339.864441 
z"/>
<path fill="#000000" opacity="1.000000" stroke="none" 
	d="
M241.693192,297.111084 
	C242.953064,300.027435 242.306686,301.397400 239.289200,300.672546 
	C237.492554,300.240967 235.768250,299.691528 233.315506,301.185852 
	C238.097366,309.816498 239.226105,320.058167 245.969284,327.783661 
	C247.874573,329.966522 247.275711,331.285034 244.917465,332.345398 
	C243.246231,333.096893 241.571228,333.840729 239.911850,334.617737 
	C232.992203,337.857880 233.473572,337.700195 231.210083,330.994934 
	C228.414703,322.713928 224.720917,314.736176 221.502701,306.841736 
	C217.226822,307.189026 217.696884,311.336823 215.377823,312.803680 
	C211.481033,309.147339 211.719269,305.063751 216.074310,302.946350 
	C222.212738,299.961914 228.540695,297.368774 234.699432,294.423950 
	C237.948334,292.870483 239.671951,294.761414 241.693192,297.111084 
z"/>
<path fill="#000000" opacity="1.000000" stroke="none" 
	d="
M337.916809,283.757751 
	C337.381775,278.551849 336.452332,273.864807 335.201599,269.354340 
	C331.322723,268.150757 330.855774,273.389252 327.657562,273.165283 
	C325.454071,267.427307 326.521057,264.962616 331.685852,263.795959 
	C337.682190,262.441528 343.768311,261.435669 349.691895,259.824158 
	C354.155731,258.609741 355.682404,261.295776 357.180206,264.395355 
	C357.705566,265.482574 357.909760,266.693268 356.730011,267.547729 
	C355.763000,268.248138 354.853027,267.754089 353.976929,267.199707 
	C352.608551,266.333801 351.254242,264.766541 349.513855,265.905182 
	C347.436676,267.264221 348.894745,269.248077 349.166412,270.929077 
	C350.199432,277.320740 351.313293,283.699646 352.441864,290.075348 
	C352.613922,291.047272 352.901520,292.038361 353.342651,292.916595 
	C356.115509,298.436646 356.134766,298.426300 349.911316,299.835754 
	C349.587036,299.909180 349.273285,300.039154 348.946411,300.089539 
	C346.164124,300.518707 343.082581,301.896332 340.660980,301.146942 
	C336.234741,299.777222 340.967377,296.465515 340.032135,293.908997 
	C338.905426,290.829041 338.630096,287.437592 337.916809,283.757751 
z"/>
<path fill="#000000" opacity="1.000000" stroke="none" 
	d="
M673.811035,302.703796 
	C673.267029,306.788116 670.734802,310.145447 672.220825,314.205994 
	C672.901978,316.066986 671.444885,317.192810 669.661987,316.609192 
	C665.021851,315.090302 660.118896,314.143524 655.593994,311.284149 
	C661.370605,303.113007 662.304626,293.669037 665.316284,284.964020 
	C666.201904,282.404144 666.340759,279.721802 662.127930,280.356201 
	C660.509277,280.599915 658.761108,282.699127 657.297729,280.291260 
	C656.460571,278.913727 657.623474,277.767914 658.367065,276.707550 
	C659.658630,274.865875 661.080017,273.374115 663.737610,274.243988 
	C667.684753,275.536041 671.695740,276.631683 675.667786,277.849304 
	C678.049866,278.579559 680.414124,279.369232 682.778381,280.156372 
	C687.750610,281.811798 688.793152,284.968964 685.929077,290.088196 
	C683.042297,289.487274 683.341858,284.826355 679.245239,285.171814 
	C676.744873,290.466797 675.904846,296.585968 673.811035,302.703796 
z"/>
<path fill="#000000" opacity="1.000000" stroke="none" 
	d="
M275.562805,279.436737 
	C278.133972,278.535492 280.306061,277.679260 282.537445,277.025330 
	C286.574005,275.842346 288.483582,278.616180 289.703735,281.576477 
	C290.545746,283.619263 289.140564,284.719269 286.936676,284.079437 
	C285.124664,283.553375 283.587067,281.688354 281.287689,283.057709 
	C280.613068,285.403717 281.415405,287.658478 282.340912,289.704132 
	C285.660522,297.041504 285.155457,305.813873 290.916504,312.252350 
	C291.975952,313.436340 291.328583,314.787140 289.765381,315.390839 
	C287.906006,316.108917 286.062408,316.890656 284.156830,317.460480 
	C281.641876,318.212524 279.085632,320.352448 276.607269,319.358276 
	C273.345764,318.049988 276.387360,314.897827 275.638031,312.643799 
	C272.931061,304.500854 271.361359,295.978882 267.815125,288.260803 
	C263.808624,287.599426 264.220520,292.660248 261.123840,292.833069 
	C258.173004,287.623230 259.086456,284.914612 264.309387,283.202209 
	C267.942474,282.011017 271.563812,280.783997 275.562805,279.436737 
z"/>
<path fill="#000000" opacity="1.000000" stroke="none" 
	d="
M335.303192,686.659119 
	C337.277191,686.532471 338.301361,685.297668 338.695709,683.532532 
	C339.928833,678.013306 341.048767,672.468567 342.314148,666.956970 
	C342.665588,665.426086 341.089569,664.644531 341.193420,662.987976 
	C345.065399,662.635010 348.557678,663.837708 352.176331,665.223022 
	C347.394257,671.148926 347.384308,678.418457 345.644562,685.078674 
	C344.926697,687.826843 348.731293,689.615601 351.824158,688.088318 
	C353.129913,687.443604 354.205078,686.331909 355.290192,685.504761 
	C357.769836,685.857788 356.367432,688.054443 357.207855,689.099304 
	C358.232086,689.389465 358.881226,688.756775 359.341187,688.121338 
	C362.768677,683.385742 365.326141,678.148743 368.033295,672.992432 
	C369.131927,670.899841 369.728546,667.760071 373.037292,668.330383 
	C376.252167,668.884521 375.803680,671.970581 376.398438,674.321167 
	C378.252747,681.649780 378.234344,689.466370 382.330322,696.711731 
	C378.353638,697.563049 374.903473,696.127869 370.919037,695.332825 
	C372.492157,692.025879 373.086792,688.850098 370.383698,686.230713 
	C369.109772,684.996216 367.159882,684.865540 365.679901,685.699158 
	C362.655701,687.402466 362.697357,690.477722 363.235779,694.085144 
	C353.471222,692.487854 344.285034,690.735107 335.178467,687.397461 
	C335.009949,687.011108 335.303192,686.659119 335.303192,686.659119 
z"/>
<path fill="#000000" opacity="1.000000" stroke="none" 
	d="
M640.835571,281.073059 
	C642.610840,276.851044 641.842468,272.747101 641.632385,268.379395 
	C647.329651,268.639282 651.945740,270.652985 656.691406,271.948334 
	C658.953369,272.565765 658.230286,274.093140 657.315002,275.860443 
	C652.397400,285.355438 649.728027,295.487274 649.912048,306.214844 
	C649.960999,309.070892 648.945312,309.986664 646.459900,309.392700 
	C642.584839,308.466705 638.745911,307.373169 634.929016,306.226562 
	C632.882141,305.611633 632.224487,304.005371 633.588196,302.382141 
	C638.693481,296.305206 638.317749,288.417267 640.835571,281.073059 
z"/>
<path fill="#000000" opacity="1.000000" stroke="none" 
	d="
M174.507629,416.527527 
	C170.800812,412.999847 168.129471,408.815704 163.057083,407.058441 
	C164.943985,403.286957 168.167984,401.294830 170.886139,398.731720 
	C175.557953,407.959747 182.669983,414.539948 190.711563,420.829926 
	C188.777985,422.781189 187.532486,426.251251 183.305466,426.169067 
	C181.705139,426.137939 181.908249,427.837402 181.570038,428.808380 
	C178.938416,436.363922 168.388702,440.905182 161.691605,432.307373 
	C159.659515,429.698486 157.093658,427.507080 154.789536,425.107880 
	C152.985626,423.229645 151.481400,420.907410 147.331787,421.685333 
	C150.835770,417.695099 153.486465,414.684174 157.049454,412.357727 
	C158.557144,420.381805 164.954193,424.168365 169.990646,428.929199 
	C171.861450,430.697601 174.458679,429.990540 176.418976,428.375031 
	C178.554626,426.614990 179.385147,424.254913 178.128708,421.691498 
	C177.264847,419.929077 175.893661,418.415283 174.507629,416.527527 
z"/>
<path fill="#000000" opacity="1.000000" stroke="none" 
	d="
M250.988617,313.905090 
	C247.957794,307.149597 247.682861,299.599792 242.124619,294.357025 
	C240.779099,293.087860 241.631851,291.486267 243.293106,290.799774 
	C246.969376,289.280609 250.657104,287.773682 254.409729,286.460602 
	C256.689545,285.662872 257.562378,286.732666 257.836578,289.160370 
	C259.048950,299.895508 262.143646,310.026611 268.355377,319.012207 
	C269.481842,320.641632 269.282349,321.904968 267.589355,322.637817 
	C263.789276,324.282867 259.947906,325.856293 256.038605,327.215088 
	C254.165253,327.866211 252.281616,327.025848 252.995560,324.812927 
	C254.283447,320.821014 251.809784,317.762970 250.988617,313.905090 
z"/>
<path fill="#000000" opacity="1.000000" stroke="none" 
	d="
M761.740051,388.254517 
	C763.958801,389.856354 765.518738,391.537720 766.468506,393.756805 
	C768.898743,399.434967 766.307312,403.425354 758.643127,405.352997 
	C758.643677,410.679596 756.395630,415.912567 757.945435,421.501587 
	C751.744385,420.739868 749.395691,417.793854 750.311829,412.423157 
	C751.626709,404.714203 751.626709,404.714203 749.485229,400.762543 
	C745.868347,403.437897 743.336548,406.563477 743.625061,411.755096 
	C739.383057,410.232483 736.561340,407.334534 733.929749,405.041534 
	C741.713745,398.361328 746.939453,390.243896 751.617615,380.851715 
	C754.804871,382.264709 757.731934,385.759644 761.740051,388.254517 
M755.474365,399.453644 
	C761.829712,396.197327 762.455078,393.000427 757.303101,389.636810 
	C755.298035,390.637146 754.322205,392.632599 753.058289,394.337006 
	C751.201416,396.840912 751.671143,398.621826 755.474365,399.453644 
z"/>
<path fill="#000000" opacity="1.000000" stroke="none" 
	d="
M373.208099,333.614349 
	C372.664612,330.400085 372.273956,327.609680 371.821228,324.829376 
	C371.040405,320.034790 371.024200,320.037415 367.722260,316.622528 
	C375.656891,315.547119 383.012054,313.238861 390.632385,314.468506 
	C397.436707,315.566498 402.017792,321.830780 402.270752,329.330109 
	C402.504730,336.268097 398.394897,341.659912 391.399261,343.464600 
	C385.327911,345.030823 379.119232,345.558838 372.403046,346.218262 
	C374.363037,341.879822 373.774506,337.958374 373.208099,333.614349 
M381.316650,336.233734 
	C381.460510,338.450775 381.717499,340.723358 384.269623,341.437775 
	C387.121216,342.236053 389.530090,341.037567 391.431732,338.988831 
	C395.033691,335.108337 394.746582,330.459808 393.428131,325.870056 
	C392.197235,321.585114 389.144958,318.771240 384.854218,317.607758 
	C381.053070,316.577057 379.033905,318.214142 379.383942,322.162415 
	C379.777924,326.606384 380.601532,331.012268 381.316650,336.233734 
z"/>
<path fill="#000000" opacity="1.000000" stroke="none" 
	d="
M425.807739,340.262939 
	C418.394714,342.258087 412.115540,341.332367 407.549713,335.161835 
	C403.723846,329.991272 403.709045,321.246979 407.199402,316.306854 
	C410.811127,311.194977 418.646667,308.855499 425.612457,310.809143 
	C431.145660,312.361053 434.881531,317.188812 435.314697,323.346985 
	C435.965179,332.594940 433.614502,336.938721 425.807739,340.262939 
M412.386993,324.464386 
	C412.721130,328.124847 413.411407,331.697937 415.389893,334.866669 
	C416.805939,337.134552 418.816010,338.465759 421.623566,338.090363 
	C424.393311,337.720062 425.970306,336.064301 426.872894,333.446991 
	C427.937531,330.359558 427.822723,327.220001 427.590057,324.088440 
	C427.119751,317.759491 423.972839,313.328552 420.081360,313.230988 
	C415.735840,313.122040 413.480804,316.177734 412.386993,324.464386 
z"/>
<path fill="#000000" opacity="1.000000" stroke="none" 
	d="
M504.219086,309.508545 
	C509.145874,315.150482 513.771851,320.567688 518.397827,325.984924 
	C519.247864,320.589783 521.837280,315.225861 516.720276,310.451233 
	C519.882935,308.909302 522.799316,309.783051 525.996948,310.407288 
	C520.762390,319.744568 523.621948,330.171326 521.343323,340.887756 
	C513.614502,334.175079 508.923096,326.201752 501.605560,319.111420 
	C502.041046,326.312317 498.352936,332.616425 503.515503,338.738220 
	C500.012482,339.569519 497.166870,339.404144 493.601624,338.194611 
	C499.268585,334.240021 497.198029,328.631683 497.774017,323.609680 
	C498.371033,318.404297 499.227661,313.208466 492.332550,309.701080 
	C497.078735,308.458374 500.427612,307.503021 504.219086,309.508545 
z"/>
<path fill="#000000" opacity="1.000000" stroke="none" 
	d="
M299.624817,649.343262 
	C302.178558,650.239441 304.401855,650.935669 306.560791,651.793762 
	C314.008423,654.753845 314.993500,659.981384 309.130371,665.241089 
	C308.744476,666.555054 309.908569,667.354980 310.202698,668.449219 
	C311.920593,674.840454 307.594543,679.521362 301.119690,678.076172 
	C298.376984,677.464050 295.714386,676.451965 293.060059,675.497375 
	C290.894043,674.718323 288.794464,673.754517 286.730621,672.899658 
	C291.026672,665.102356 293.713654,657.127197 294.652222,648.117737 
	C295.983795,647.613586 297.539246,648.991821 299.624817,649.343262 
M299.488831,674.218567 
	C302.243652,673.449707 303.976349,671.688538 303.462036,668.789551 
	C303.021362,666.305786 301.222534,664.881348 298.006805,664.828674 
	C297.876099,668.128662 292.430664,671.385803 299.488831,674.218567 
M300.054901,659.096802 
	C299.315491,662.157654 301.273895,662.167236 303.156860,661.528992 
	C305.289337,660.806091 306.006866,658.944092 305.722748,656.745789 
	C305.533508,655.281311 304.676636,654.085999 303.249359,654.089417 
	C300.420410,654.096313 301.053131,656.849060 300.054901,659.096802 
z"/>
<path fill="#000000" opacity="1.000000" stroke="none" 
	d="
M536.307617,333.242676 
	C536.755371,334.571533 536.972900,335.612061 537.551025,336.381622 
	C539.462524,338.925995 542.147644,341.156647 545.143005,339.319244 
	C548.071167,337.523041 548.561951,334.224030 546.415039,331.046753 
	C546.160889,330.670624 546.114563,330.154053 545.845093,329.301544 
	C549.792419,328.530334 553.311646,329.877106 557.063904,330.182739 
	C556.760559,332.650909 554.961792,334.244781 555.010742,336.510742 
	C555.133057,342.164337 551.473145,343.189972 546.801392,343.229797 
	C532.847717,343.348694 525.475891,335.005524 528.676636,322.562927 
	C530.718994,314.623413 538.674438,310.205872 547.506958,312.144714 
	C550.388062,312.777191 553.114746,314.059662 556.314209,313.869598 
	C556.615417,316.649811 556.526672,319.050476 555.806335,321.364288 
	C553.758240,321.795135 553.542969,320.106842 552.784363,319.146606 
	C550.490662,316.243317 547.544617,314.086334 543.840942,314.778625 
	C540.171875,315.464447 537.936462,318.396179 536.883911,321.960175 
	C535.835388,325.510315 535.738098,329.164154 536.307617,333.242676 
z"/>
<path fill="#000000" opacity="1.000000" stroke="none" 
	d="
M634.742432,345.766632 
	C631.708252,348.382385 628.936646,350.757751 626.195496,353.167816 
	C625.996643,353.342651 626.019531,353.769714 625.945679,354.081177 
	C631.490845,357.809540 635.063843,358.023895 642.617188,355.082611 
	C641.866699,361.053711 640.474426,362.147675 635.158386,360.699127 
	C628.306274,358.832123 621.481018,356.866547 613.105713,354.510651 
	C620.856567,346.565125 629.261536,340.970276 636.213318,333.374908 
	C631.048584,330.182037 626.225769,328.761475 621.227295,333.749054 
	C621.298645,326.636475 622.557190,325.456390 628.309509,327.282318 
	C634.740051,329.323547 641.551819,330.158539 648.246460,333.214752 
	C644.575562,338.598480 639.096985,341.346039 634.742432,345.766632 
z"/>
<path fill="#000000" opacity="1.000000" stroke="none" 
	d="
M796.922974,457.730774 
	C793.143799,462.266876 791.645325,462.324463 788.381653,458.079224 
	C784.933533,453.594208 781.533752,449.069641 778.223083,444.482788 
	C777.200439,443.065918 775.735046,441.736389 776.140930,439.013245 
	C785.808472,438.445038 795.585266,437.870392 806.504211,437.228638 
	C802.433899,432.278137 801.061401,426.061432 793.201355,427.969818 
	C797.309509,422.496460 799.036499,422.364136 802.424438,426.646301 
	C806.732178,432.091125 811.000671,437.562714 815.097046,444.454407 
	C804.693359,446.404877 794.601501,444.093018 785.053528,446.851166 
	C786.738281,453.524719 791.049805,457.422211 796.922974,457.730774 
z"/>
<path fill="#000000" opacity="1.000000" stroke="none" 
	d="
M271.660980,367.872131 
	C274.448486,371.842010 273.810211,374.322876 269.181427,375.813538 
	C264.042145,377.468567 259.495239,380.745239 254.417740,381.774902 
	C253.278732,371.370453 249.476074,362.449554 243.015259,353.856079 
	C248.117477,351.699738 253.453659,349.106445 259.024933,347.200226 
	C263.246307,345.755859 263.150330,349.517578 264.356598,353.036560 
	C260.349579,350.698914 257.034485,349.802673 253.941406,353.251526 
	C254.076920,356.339691 256.179840,358.867004 256.864777,361.787872 
	C260.680298,362.579071 262.047852,359.886230 263.796997,357.384521 
	C266.174133,359.000671 266.410278,361.486694 267.228912,363.876862 
	C266.620148,364.080414 266.134918,364.433105 265.786194,364.328918 
	C263.152374,363.542114 260.186066,363.530151 259.637543,366.472687 
	C259.104431,369.332794 260.391571,372.802032 263.364838,373.980499 
	C266.192017,375.101074 268.326294,372.981873 269.563049,370.339508 
	C270.023315,369.356110 269.764404,367.901947 271.660980,367.872131 
z"/>
<path fill="#000000" opacity="1.000000" stroke="none" 
	d="
M336.685486,342.164673 
	C334.986633,336.073151 334.717682,329.992706 331.352722,324.543182 
	C336.817596,322.382935 342.364563,321.463470 347.843170,320.484558 
	C352.525177,319.647980 351.240814,323.658325 352.368622,326.936432 
	C348.468842,324.840210 344.650726,321.580292 342.013733,325.698090 
	C340.652893,327.823120 341.184998,332.408691 344.030823,334.228912 
	C346.692139,335.931030 348.888947,333.538239 350.482025,330.882660 
	C353.208466,333.029297 351.863556,336.183289 353.774292,338.894501 
	C350.026062,339.101471 346.075378,334.855927 344.657867,340.031860 
	C343.941193,342.648895 344.072510,346.700317 347.457550,347.763641 
	C351.753784,349.113220 354.094025,346.035187 355.290558,341.795959 
	C357.999481,343.606293 357.514862,346.073944 357.248901,348.158539 
	C356.980652,350.260895 354.864410,350.114746 353.248535,350.323883 
	C347.849670,351.022675 342.728516,353.343842 336.567200,353.249023 
	C338.164062,349.527435 337.905975,346.034241 336.685486,342.164673 
z"/>
<path fill="#000000" opacity="1.000000" stroke="none" 
	d="
M785.885498,412.665894 
	C780.737061,411.615692 780.647583,416.886719 777.651611,418.019135 
	C778.606079,422.314880 781.772705,422.455719 785.059082,422.902771 
	C783.617981,425.549530 782.023010,427.248413 779.575439,428.447876 
	C778.124146,425.861420 778.141541,421.291046 774.350464,422.281189 
	C771.742126,422.962494 768.187927,425.678101 769.082642,429.218811 
	C770.143188,433.415741 773.955994,434.158386 778.042664,433.088715 
	C776.054749,438.619141 774.010986,439.226746 770.231323,435.352844 
	C766.553040,431.582794 762.151550,428.467804 759.488892,424.233917 
	C767.541931,418.246704 774.266052,411.503296 779.680115,402.304474 
	C783.742065,406.365753 788.143066,410.511353 792.211914,414.960602 
	C793.821777,416.721069 793.117310,417.738953 789.000122,420.795563 
	C788.478149,417.895325 789.296875,414.541260 785.885498,412.665894 
z"/>
<path fill="#000000" opacity="1.000000" stroke="none" 
	d="
M486.190216,690.520264 
	C487.650177,691.905640 488.826324,692.421875 488.892242,690.027283 
	C488.991455,686.424683 489.687927,682.673584 486.635620,679.470703 
	C489.254486,678.021790 491.628784,678.984497 494.297577,678.692566 
	C490.219727,687.302979 493.633881,696.142334 491.589630,705.458801 
	C484.666443,700.453186 480.272125,693.969604 474.063049,688.424561 
	C473.273041,694.320923 471.982361,699.545593 475.827576,704.584961 
	C472.866302,705.575684 470.388214,705.603821 468.270752,704.865601 
	C470.194366,695.944275 472.864563,687.377991 465.711792,679.266846 
	C471.021820,677.970154 475.706665,677.728821 479.351746,682.818237 
	C481.277802,685.507507 483.747162,687.807739 486.190216,690.520264 
z"/>
<path fill="#000000" opacity="1.000000" stroke="none" 
	d="
M408.504913,676.765991 
	C407.202209,675.042175 407.086945,673.911560 409.347656,674.118103 
	C411.287659,674.295288 413.198792,674.788391 415.595093,675.228638 
	C409.975525,683.084473 412.346039,692.652100 408.764557,702.148499 
	C403.532623,695.139099 399.019012,689.092041 393.986938,682.350403 
	C391.640961,687.984070 391.553345,692.964355 393.507019,698.227478 
	C390.679993,699.297241 388.222961,698.175720 385.657440,697.898254 
	C389.474365,689.457336 393.281189,681.274353 387.312317,672.480347 
	C393.167938,670.749207 395.994934,671.710754 399.333740,676.533875 
	C401.971375,680.344055 404.669281,684.112427 407.980804,688.807373 
	C408.483734,684.189453 410.757721,680.840515 408.504913,676.765991 
z"/>
<path fill="#000000" opacity="1.000000" stroke="none" 
	d="
M682.063110,660.692993 
	C680.579041,670.599304 671.099243,673.895081 663.891479,671.951538 
	C656.812500,670.042786 652.835022,660.921326 655.614929,653.648804 
	C657.609741,648.430298 663.834839,644.745300 670.064941,645.095032 
	C674.982544,645.371033 679.699097,649.234497 681.144226,654.459351 
	C681.664795,656.341370 682.541809,658.227173 682.063110,660.692993 
M669.062866,669.227783 
	C674.708618,668.523071 676.207336,666.890503 675.661438,661.658386 
	C675.255310,657.765137 673.676575,654.265259 671.252075,651.218201 
	C669.760559,649.343750 667.882141,647.779663 665.235535,648.676514 
	C662.341187,649.657227 660.941650,652.028870 661.183289,654.895203 
	C661.655518,660.495911 663.148132,665.729858 669.062866,669.227783 
z"/>
<path fill="#000000" opacity="1.000000" stroke="none" 
	d="
M233.903625,357.870300 
	C237.540497,355.631805 240.019180,355.647675 240.999542,360.667328 
	C237.543533,360.228394 233.608398,359.663177 232.223129,362.773865 
	C230.801071,365.967102 233.635803,368.823700 235.515228,371.438934 
	C238.880341,371.158264 240.685425,369.040222 242.325851,366.320038 
	C244.325577,368.064941 245.284744,369.967651 245.520355,372.593445 
	C242.656784,373.072937 238.098297,371.947327 238.003418,375.447601 
	C237.893555,379.500427 239.684143,383.877563 245.050140,385.616974 
	C241.358795,388.562683 237.876114,390.455017 233.841187,391.583160 
	C233.510193,384.726501 225.409332,368.551117 220.144089,364.944702 
	C224.862335,362.519592 229.219559,360.280060 233.903625,357.870300 
z"/>
<path fill="#000000" opacity="1.000000" stroke="none" 
	d="
M216.653320,401.025940 
	C214.276535,405.626831 209.958374,407.376587 206.025284,408.515137 
	C202.277496,409.600006 201.993759,405.398651 200.306381,402.407867 
	C203.548615,402.218170 205.360306,404.284058 207.725311,403.940308 
	C210.236465,403.575317 212.504898,402.862579 212.598114,399.966339 
	C212.690262,397.103546 210.320679,396.614258 208.085617,396.407104 
	C205.279221,396.147095 202.440002,396.172089 199.652252,395.796814 
	C195.860870,395.286469 193.070374,393.459686 192.637817,389.263519 
	C192.187057,384.890656 192.719940,380.906403 197.129349,378.556671 
	C199.002533,377.558411 200.866425,376.542725 202.782883,375.508881 
	C204.892517,377.081055 206.152359,379.043823 206.720352,381.472931 
	C204.454193,382.903870 202.981918,381.035339 201.258820,380.866272 
	C198.940323,380.638794 197.159164,381.694336 196.661957,383.806610 
	C196.079269,386.282013 197.908524,387.455475 200.109940,387.694611 
	C202.251205,387.927155 204.427979,387.823273 206.588470,387.889435 
	C215.517212,388.162781 218.283279,391.613617 216.653320,401.025940 
z"/>
<path fill="#000000" opacity="1.000000" stroke="none" 
	d="
M675.898804,347.228241 
	C674.288696,345.036316 672.443542,343.656494 670.258423,345.302368 
	C668.000488,347.003052 669.239136,349.261749 670.340637,351.116241 
	C671.607971,353.249786 673.232300,355.169556 674.527588,357.288544 
	C676.662842,360.781647 677.351562,364.534302 674.851135,368.056549 
	C672.146057,371.866913 668.053345,372.075043 664.064148,370.808472 
	C661.123657,369.874847 658.435303,368.146912 655.755676,366.832275 
	C655.464417,363.751648 657.072937,361.890076 658.648438,359.038147 
	C659.835205,362.448181 660.340271,365.310333 662.713623,367.151978 
	C664.479004,368.521881 666.115601,369.107330 668.015198,367.359772 
	C669.743896,365.769409 669.452271,364.209686 668.284363,362.508728 
	C666.874634,360.455597 665.492798,358.383118 664.113220,356.309448 
	C661.475952,352.345062 660.700073,348.365479 664.218079,344.479340 
	C667.149231,341.241425 672.060547,340.635803 676.621277,342.858215 
	C681.933899,345.447021 682.171509,346.604675 678.400330,351.604675 
	C676.280396,351.020447 677.036560,348.782471 675.898804,347.228241 
z"/>
<path fill="#000000" opacity="1.000000" stroke="none" 
	d="
M449.955750,677.018982 
	C453.275360,677.262817 454.575378,679.304565 455.632233,682.308716 
	C458.252472,689.756470 459.830322,697.626221 464.505096,704.732849 
	C460.657166,705.640137 457.224091,705.627991 453.830353,704.370789 
	C453.927155,697.233521 452.723846,694.979675 448.859467,695.433777 
	C443.451599,696.069214 444.652100,700.259033 444.846802,703.918335 
	C442.639740,704.618042 440.614197,704.398987 438.029602,703.786743 
	C443.518250,695.431335 445.964874,686.258301 449.902100,677.349976 
	C449.985321,677.004272 449.955750,677.018982 449.955750,677.018982 
z"/>
<path fill="#000000" opacity="1.000000" stroke="none" 
	d="
M159.518967,450.040833 
	C162.939621,447.009277 161.792267,443.514191 160.864899,439.967865 
	C166.866165,442.042297 167.627975,444.169800 164.353668,448.795746 
	C161.137344,453.339844 158.444214,458.288452 154.903961,461.846619 
	C148.417557,453.823730 140.293320,448.690247 131.239532,443.998260 
	C132.291656,440.609100 134.976852,437.591583 138.543854,433.901550 
	C138.401154,438.275909 140.893356,439.920044 143.508759,441.652863 
	C147.246002,444.128937 150.739349,446.970398 154.432571,449.516998 
	C155.831482,450.481598 157.337463,452.120392 159.518967,450.040833 
z"/>
<path fill="#000000" opacity="1.000000" stroke="none" 
	d="
M282.253113,360.752502 
	C283.233368,363.027283 283.599457,365.703522 286.385986,365.500763 
	C290.534332,365.198914 292.352570,361.950897 293.442413,357.799438 
	C297.135284,364.038971 296.792603,365.198151 291.337036,367.151978 
	C286.217926,368.985321 281.087494,370.787140 275.829437,372.649780 
	C275.894958,361.774689 271.610748,352.835480 266.707031,343.735626 
	C269.668884,341.767792 273.743286,341.189117 277.945618,339.505768 
	C276.167603,347.609222 280.135406,353.782257 282.253113,360.752502 
z"/>
<path fill="#000000" opacity="1.000000" stroke="none" 
	d="
M334.864899,687.188477 
	C330.995697,687.424500 327.613892,686.085876 323.727997,684.922729 
	C325.269318,681.745361 326.846100,678.636963 323.820679,675.817627 
	C322.419006,674.511353 320.523102,673.619080 318.816406,674.664734 
	C316.280975,676.218140 314.872314,678.609619 316.120209,681.908203 
	C313.335571,682.704590 311.453979,681.481567 308.977539,680.328125 
	C315.184113,674.781250 318.862366,667.912537 323.205536,661.524597 
	C324.388000,659.785400 325.381470,657.518005 328.153137,658.235229 
	C330.812958,658.923523 330.184906,661.237427 330.407898,663.150391 
	C331.135620,669.392944 331.982910,675.622070 332.652832,681.870422 
	C332.847321,683.684387 333.745270,684.946167 335.116333,686.400635 
	C335.303192,686.659119 335.009949,687.011108 334.864899,687.188477 
z"/>
<path fill="#000000" opacity="1.000000" stroke="none" 
	d="
M612.693665,683.291748 
	C613.978455,685.478149 615.662109,686.826843 617.824280,688.381775 
	C614.444885,690.686646 611.065247,690.925903 607.269287,691.303223 
	C607.114075,687.937866 606.548584,684.531067 603.300293,683.071960 
	C601.797180,682.396851 599.462036,682.991882 598.340027,684.582336 
	C596.411987,687.315430 596.981079,690.159180 599.180359,692.578857 
	C597.016113,694.346130 594.996094,694.600647 592.440002,693.967041 
	C595.497620,686.270386 595.171082,678.085693 596.602722,670.181702 
	C596.925537,668.399414 596.656494,666.369507 599.108459,665.911926 
	C601.409180,665.482422 602.345093,667.224731 603.331970,668.741394 
	C606.413086,673.476135 609.442200,678.244690 612.693665,683.291748 
z"/>
<path fill="#000000" opacity="1.000000" stroke="none" 
	d="
M435.149597,677.294434 
	C438.278870,677.019043 439.690979,677.921997 438.971985,680.955994 
	C438.594177,682.550232 438.308228,684.166321 437.912415,686.108032 
	C435.783722,685.052856 435.429474,682.909485 434.200684,681.519409 
	C431.295654,678.232971 428.372864,677.933167 425.171478,680.691772 
	C420.771790,684.483093 420.239655,692.819397 424.132385,696.970520 
	C426.753082,699.765198 429.227692,699.750488 436.755981,696.895386 
	C437.007690,700.807007 431.842224,704.165833 426.634186,703.477112 
	C417.994659,702.334473 413.623108,696.622498 414.601807,687.755188 
	C415.502411,679.595642 420.935822,675.219666 429.465607,675.946960 
	C431.260468,676.099976 433.011993,676.761353 435.149597,677.294434 
z"/>
<path fill="#000000" opacity="1.000000" stroke="none" 
	d="
M639.264160,680.239990 
	C633.359009,676.863953 631.308838,671.723999 631.921021,665.734558 
	C632.659607,658.508240 634.853760,657.217773 651.006714,652.559937 
	C652.183655,654.982178 653.872375,657.264954 652.928772,660.746338 
	C649.785278,659.006409 647.552063,655.606567 643.586975,656.797302 
	C641.946655,657.289856 640.561584,658.125854 639.568054,659.563110 
	C636.949097,663.351501 638.785889,671.587036 643.013733,674.959717 
	C646.977905,678.122314 650.168640,677.148315 656.324036,670.896729 
	C657.284363,674.063965 657.128235,675.007690 654.435059,677.448547 
	C650.129883,681.350403 645.146423,682.313782 639.264160,680.239990 
z"/>
<path fill="#000000" opacity="1.000000" stroke="none" 
	d="
M181.683212,389.701599 
	C183.131500,388.612549 184.132004,387.396271 185.799286,387.406616 
	C186.288391,393.782410 197.854385,409.289520 203.407715,410.524353 
	C201.007721,414.446625 197.369247,416.389038 194.312775,418.064056 
	C190.060242,408.753143 183.907410,401.391266 176.604111,393.852661 
	C177.235779,392.472382 179.726852,391.585175 181.683212,389.701599 
z"/>
<path fill="#000000" opacity="1.000000" stroke="none" 
	d="
M530.295288,693.812927 
	C530.220764,696.941284 530.403748,699.563416 532.754333,701.727234 
	C529.236755,704.133179 525.857117,703.283447 522.095093,703.082275 
	C525.237610,696.180725 522.917847,689.532654 522.373535,682.915710 
	C522.130005,679.954712 519.912476,679.563049 517.665710,681.172668 
	C516.817688,681.780334 516.433899,683.035889 515.617432,684.352356 
	C512.837585,678.698547 513.326538,677.487793 517.806885,677.044067 
	C523.073914,676.522522 528.361572,676.212524 533.637024,675.771667 
	C537.807861,675.423218 537.596008,678.079834 537.406006,681.236450 
	C534.955933,680.670898 532.967163,677.724304 530.542114,679.900635 
	C528.386841,681.834900 529.429626,684.567078 529.529175,686.971497 
	C529.617859,689.113159 530.021301,691.241760 530.295288,693.812927 
z"/>
<path fill="#000000" opacity="1.000000" stroke="none" 
	d="
M622.077515,663.432068 
	C617.663086,665.346741 618.819702,667.357361 621.790527,669.009216 
	C623.952759,670.211426 626.384094,670.922852 628.672241,671.906860 
	C632.273254,673.455566 634.243530,676.163879 633.718811,680.128784 
	C633.203125,684.024719 630.656067,686.353455 626.900391,687.131653 
	C624.508179,687.627380 622.023926,687.679077 619.452942,687.942993 
	C618.519226,685.874573 617.447571,684.038574 618.173340,681.786438 
	C620.332336,681.649414 621.028931,683.672546 622.630005,684.137878 
	C624.923889,684.804626 627.205933,684.770386 628.237183,682.438904 
	C629.350464,679.921997 627.131775,678.960999 625.253296,678.200073 
	C623.410095,677.453552 621.458923,676.965393 619.638611,676.172241 
	C616.074951,674.619385 614.058777,671.901001 614.575439,667.925354 
	C615.068115,664.133911 617.163574,661.523071 621.105835,660.710876 
	C622.881409,660.345032 624.650330,659.947510 626.469971,659.554016 
	C628.383423,661.120178 628.592041,663.144348 628.252930,665.589233 
	C625.876099,665.861511 624.659607,663.132507 622.077515,663.432068 
z"/>
<path fill="#000000" opacity="1.000000" stroke="none" 
	d="
M133.607697,462.564484 
	C133.122223,462.932281 132.680740,463.196014 132.707367,463.398102 
	C133.156586,466.809967 133.045044,470.178497 128.568680,470.190582 
	C124.198097,470.202423 122.693581,467.069122 122.682198,463.091766 
	C122.679466,462.135193 122.428062,461.095154 123.393272,460.140839 
	C124.956627,461.066071 125.907326,464.047577 128.775223,461.933533 
	C127.587097,458.820801 125.144356,455.759277 126.808159,451.681000 
	C128.878113,452.503815 129.600815,454.934814 131.995193,454.577789 
	C133.887558,454.295563 135.686478,454.862427 136.300262,457.073120 
	C136.979446,459.519501 136.102478,461.290833 133.607697,462.564484 
z"/>
<path fill="#000000" opacity="1.000000" stroke="none" 
	d="
M817.957520,461.027771 
	C814.802002,460.029175 810.761963,460.860443 808.816528,456.325714 
	C811.394043,456.077515 813.727295,455.924072 815.011047,453.094055 
	C815.738464,451.490417 818.255249,451.247284 819.843506,452.751007 
	C822.056702,454.846649 821.832947,457.143585 819.264526,459.744324 
	C818.512695,460.472992 818.235107,460.750397 817.957520,461.027771 
z"/>
<path fill="#000000" opacity="1.000000" stroke="none" 
	d="
M817.897034,461.356201 
	C818.235107,460.750397 818.512695,460.472992 818.982056,459.967072 
	C821.944092,459.716156 824.685425,459.810883 825.173523,463.422241 
	C825.446899,465.445190 824.659058,467.295074 822.714478,467.826019 
	C818.901855,468.867004 815.172913,468.901672 812.664185,464.576538 
	C814.354370,463.312805 818.014771,465.634979 817.897034,461.356201 
z"/>
<path fill="#000000" opacity="1.000000" stroke="none" 
	d="
M478.957581,306.450439 
	C479.729431,299.794098 483.943726,295.756866 490.752411,299.824219 
	C486.787323,302.305481 483.882324,305.918549 478.957581,306.450439 
z"/>
<path fill="#000000" opacity="1.000000" stroke="none" 
	d="
M496.576447,703.260559 
	C496.000854,701.132812 496.303223,699.594299 498.146942,698.819946 
	C499.607788,698.206299 501.068787,698.331177 502.200745,699.613953 
	C503.413391,700.988159 503.582184,702.660034 502.922302,704.239380 
	C501.960968,706.540161 500.588287,708.553406 497.596680,708.751526 
	C496.748260,707.082947 498.013550,705.081421 496.576447,703.260559 
z"/>
<path fill="#000000" opacity="1.000000" stroke="none" 
	d="
M741.094604,362.318298 
	C742.069641,362.970001 742.816772,363.373322 742.829102,364.954254 
	C738.389343,365.286865 734.051331,367.309296 729.211365,365.771606 
	C732.270447,360.783478 735.404785,359.861664 741.094604,362.318298 
z"/>
<path fill="#000000" opacity="1.000000" stroke="none" 
	d="
M449.997833,676.994690 
	C448.544434,676.872253 447.125397,676.426697 447.983307,674.640442 
	C448.985504,672.553772 449.259583,669.563904 452.475555,669.458069 
	C454.235962,669.400208 456.010010,669.754944 458.239960,669.967712 
	C456.480530,673.638977 452.689819,674.207275 450.187439,676.773376 
	C449.955750,677.018982 449.985321,677.004272 449.997833,676.994690 
z"/>
<path fill="#000000" opacity="1.000000" stroke="none" 
	d="
M692.122375,660.438599 
	C692.473328,663.216370 691.216431,664.452637 688.893677,664.586365 
	C687.505676,664.666260 686.325500,664.060242 685.848511,662.620972 
	C685.334351,661.069702 685.622253,659.644653 687.058350,658.760437 
	C689.117981,657.492432 690.773254,658.152954 692.122375,660.438599 
z"/>
</svg>