<svg version="1.1" id="Layer_1" xmlns="http://www.w3.org/2000/svg" xmlns:xlink="http://www.w3.org/1999/xlink" x="0px" y="0px"
	 width="100%" viewBox="0 0 912 912" enable-background="new 0 0 912 912" xml:space="preserve">
<path fill="#000000" opacity="1.000000" stroke="none" 
	d="
M233.895599,475.925476 
	C249.651459,458.866211 269.120117,450.147675 291.604370,447.669647 
	C327.643127,443.697723 360.227325,455.025146 391.943268,470.304108 
	C411.394104,479.674408 428.872498,492.169403 446.725372,504.130951 
	C491.069824,533.842041 537.921875,558.483887 589.304626,573.921936 
	C607.843018,579.491882 626.487976,584.116150 645.924683,584.833679 
	C684.974304,586.275208 713.053528,568.175720 733.052368,535.802917 
	C741.075256,522.815979 746.743408,508.807465 750.589905,494.050140 
	C750.796021,493.259460 750.828979,492.380859 751.719971,491.966553 
	C752.886536,491.825134 753.148621,492.660614 753.181274,493.491425 
	C754.070557,516.157227 752.649658,538.433167 742.656189,559.389526 
	C731.734741,582.292053 714.107056,598.040710 690.978943,607.751831 
	C664.423767,618.901917 636.908203,620.328857 608.669800,615.824097 
	C570.489258,609.733398 534.858643,596.034668 499.712555,580.672302 
	C463.241272,564.730713 428.005035,546.138672 391.483002,530.309998 
	C367.934418,520.104065 344.091553,510.758057 318.743713,505.918701 
	C311.362579,504.509460 303.895660,503.886322 296.400787,504.401428 
	C283.948578,505.257324 271.515717,517.182495 270.415100,529.090881 
	C268.869659,545.812134 275.503632,555.680542 290.658813,560.009766 
	C295.505249,561.394226 298.818939,559.792053 302.433197,556.908447 
	C313.295776,548.241638 329.411835,549.092102 339.536652,558.574768 
	C349.014801,567.451782 350.083649,582.391113 341.843384,594.715820 
	C333.724640,606.858704 321.192200,611.922913 307.594482,614.004333 
	C276.792450,618.719116 250.427551,609.696777 230.145996,585.783691 
	C213.781738,566.489319 208.574127,543.765930 213.129944,518.952454 
	C216.077499,502.898407 223.246353,488.733215 233.895599,475.925476 
z"/>
</svg>